<?xml version="1.0" encoding="iso-8859-1"?>
<!-- Generator: Adobe Illustrator 16.0.0, SVG Export Plug-In . SVG Version: 6.00 Build 0)  -->
<!DOCTYPE svg PUBLIC "-//W3C//DTD SVG 1.1//EN" "http://www.w3.org/Graphics/SVG/1.1/DTD/svg11.dtd">
<svg version="1.1" id="Capa_1" xmlns="http://www.w3.org/2000/svg" xmlns:xlink="http://www.w3.org/1999/xlink" x="0px" y="0px"
	 width="193.672px" height="193.672px" viewBox="0 0 193.672 193.672" style="enable-background:new 0 0 193.672 193.672;"
	 xml:space="preserve">
<g>
	<g>
		<path d="M189.776,14.598c-0.007-0.037-0.031-0.06-0.038-0.096c0.14-1.43-0.376-2.904-1.839-3.671
			c-12.17-6.375-29.798-5.149-43.113-5.501C127.827,4.882,110.861,5.454,93.9,5.322C79.507,5.21,65.104,4.797,50.722,4.246
			c-6.773-0.26-13.548-0.425-20.319-0.757c-0.781-0.039-9.338,0.705-8.995,0.87c-0.007-0.003-0.014-0.002-0.02-0.006
			c-0.992-2.766-4.861-3.625-6.959-0.724C1.701,21.232,7.873,55.112,8.674,75.194c1.418,35.483-1.796,71.399-8.593,106.218
			c-0.583,2.985,2.08,4.697,4.287,4.166c0.434,0.592,1.004,1.119,1.865,1.433c23.245,8.452,51.546,3.37,75.706,2.828
			c17.579-0.395,35.206-0.031,52.79-0.031c14.438,0,30.872,2.241,44.985-1.032c1.73-0.401,2.601-1.921,2.639-3.462
			c1.481,1.929,4.479,1.188,4.831-1.539c3.367-26.177,5.77-54.045,6.178-80.465C193.803,74.791,194.471,42.734,189.776,14.598z
			 M181.059,146.237c-1.006,11.159-3.357,25.227,0.205,36.31c-0.411-0.407-0.9-0.748-1.549-0.898
			c-12.465-2.893-26.709-1.034-39.456-1.034H90.455c-26.801,0-55.846,5.254-82.191-0.963c-0.131-0.031-0.234,0.002-0.359-0.019
			C24.828,123.242,10.614,64.385,21.402,7.68c17.099,9.935,47.212,6.34,66.872,6.698c15.545,0.284,31.094-0.09,46.64-0.02
			c15.787,0.07,31.153,2.496,46.719,3.533c-3.398,27.521,2.427,57.796,2.588,85.42C184.303,117.643,182.341,131.986,181.059,146.237
			z"/>
		<path d="M148.271,92.764c0.128-3.93,2.16-9.694,0.77-13.368c-0.701-1.85-2.577-2.901-4.316-2.409
			c-0.095-1.096-0.656-2.152-1.834-2.899c-2.705-1.717-7.198-0.271-10.186,0.08c-4.348,0.512-8.71,1.04-13.073,1.436
			c-0.137-8.159-0.251-16.68-1.549-24.729c-0.077-0.476-0.316-0.833-0.612-1.131c0.576-2.009-0.936-4.278-3.396-4.603
			c-4.029-0.532-8.383,0.479-12.443,0.8c-5.424,0.429-10.867,0.547-16.293,0.944c-1.687,0.124-2.664,1.156-2.997,2.361
			c-1.963,0.155-3.9,1.494-3.768,3.776c0.33,5.694,0.674,11.348,1.344,16.973c0.191,2.129,0.483,4.219,0.937,6.24
			c0.028,0.156,0.055,0.313,0.083,0.469c-4.542,0.024-9.083,0.062-13.625,0.13c-4.341,0.065-9.253-1.115-12.031,2.716
			c-0.004,0.006-0.001,0.013-0.006,0.019c-1.132-0.063-2.298,0.651-2.4,2.19c-0.475,7.172-0.68,14.202-0.149,21.378
			c0.307,4.154-0.229,11.418,5.313,11.969c0.832,0.083,1.467-0.059,1.974-0.338c0.325,0.234,0.67,0.429,1.032,0.513
			c4.723,1.094,9.768,1.386,14.591,1.73c2.376,0.17,5.419,0.731,8.225,0.641c-1.695,7.977-1.484,16.015-1.321,24.455
			c0.081,4.22,5.084,5.169,7.36,2.858c5.464,0.457,10.957,0.761,16.444,0.958c0.36,0.195,0.709,0.445,1.075,0.612
			c0.983,0.451,1.854,0.124,2.311-0.517c1.449,0.032,2.902,0.121,4.348,0.124c1.959,0.006,3.178-1.139,3.664-2.565
			c1.74,0.194,3.8-1.591,3.428-3.676c-1.512-8.482-0.2-16.561,1.057-24.963c3.536,0.256,7.073,0.455,10.621,0.63
			c3.474,0.171,9.485,1.882,12.188-0.978c0.724-0.765,1.079-1.722,1.075-2.679c1.4-0.181,2.677-1.185,2.533-2.856
			C148.176,103.644,148.095,98.193,148.271,92.764z M131.496,82.023c2.52-0.11,6.932,0.435,9.817-0.462
			c-0.753,3.067-0.402,6.79-0.394,9.533c0.004,1.32,0.038,2.643,0.095,3.964c-4.105-5.324-12.564-9.88-16.739-12.862
			C126.678,82.19,129.08,82.128,131.496,82.023z M96.345,53.852c-0.11,0.538-0.259,1.062,0.026,1.614
			c0.705,1.374,1.695,2.625,2.65,3.833c1.318,1.669,2.715,3.263,4.189,4.796c1.432,1.487,2.916,3.468,5.116,3.443
			c1.045-0.011,1.786-1.002,1.53-2.008c-0.454-1.785-1.953-2.455-3.314-3.586c-1.463-1.215-2.833-2.54-4.164-3.897
			c-1.131-1.153-2.218-2.369-3.189-3.66c-0.109-0.144-0.356-0.321-0.628-0.502c1.023,0.012,2.047,0.044,3.071,0.048
			c3.481,0.014,7.515,0.246,11.016-0.737c-0.86,6.46-1.077,13.146-1.202,19.68c-8.017-5.824-15.988-11.719-23.574-18.08
			c-0.443-0.372-0.922-0.446-1.355-0.359c-0.043-0.325-0.071-0.652-0.116-0.977C89.709,53.681,93.026,53.785,96.345,53.852z
			 M61.919,108.805c-0.167,0.016-0.305,0.067-0.46,0.098c-0.266-2.172-0.847-4.321-1.018-5.347c-0.312-1.867-0.599-3.76-0.887-5.648
			c1.27,1.286,2.547,2.563,3.869,3.799c2.809,2.623,6.187,6.082,9.995,7.083C69.583,108.617,65.706,108.457,61.919,108.805z
			 M76.937,108.936c-1.055-0.035-2.12-0.085-3.186-0.133c1.097,0.067,1.714-1.203,0.972-2.061c-2.473-2.859-6.31-4.704-9.249-7.085
			c-2.247-1.82-4.386-3.772-6.504-5.744c-0.289-2.05-0.576-4.104-0.821-6.155c7.857,7.312,16,14.279,24.226,21.149
			C80.465,108.877,78.549,108.991,76.937,108.936z M57.646,83.573c-0.017-0.178-0.049-0.359-0.065-0.537
			c2.638,1.311,6.043,0.776,9.228,0.781c-0.411,0.594-0.489,1.395,0.178,1.924c15.074,11.94,30.139,25.282,46.282,35.743
			c-0.156,1.965-0.256,3.931-0.226,5.891C95.461,111.649,75.649,98.772,57.646,83.573z M90.918,139.158
			c-0.058-1.979-0.168-3.965-0.294-5.955c1.768,1.646,3.59,3.238,5.473,4.813c0.279,0.233,0.573,0.495,0.856,0.738
			C94.941,138.89,92.924,138.995,90.918,139.158z M114.074,138.067c-3.566,0.009-7.149,0.127-10.731,0.295
			c-1.242-0.839-2.486-1.655-3.642-2.461c-3.175-2.222-6.288-4.553-9.355-6.937c-0.305-4.588-0.563-9.178-0.373-13.729
			c7.438,6.183,14.866,12.378,22.111,18.801c0.521,0.461,1.084,0.632,1.642,0.682c0.211,1.155,0.466,2.304,0.789,3.438
			C114.358,138.14,114.242,138.067,114.074,138.067z M134.079,108.233c-5.239,0.308-10.468,0.488-15.693,0.977
			c-0.211,0.02-0.365,0.101-0.55,0.15c-1.549-0.01-2.991,0.857-3.362,2.931c-0.23,1.279-0.439,2.567-0.625,3.861
			c-12.966-12.337-29.358-22.517-44.122-32.319c4.983,0.094,9.968,0.152,14.951,0.143c5.551,5.013,11.255,9.862,17.106,14.518
			c3.736,2.971,10.014,9.583,15.163,9.225c1.408-0.098,1.93-1.562,1.084-2.616c-3.127-3.895-9.918-6.548-14.007-9.514
			c-5.542-4.021-10.865-8.326-16.21-12.603c1.09-1.115,1.305-2.947,0.639-4.361c0.129-2.931-0.148-5.88-0.422-8.818
			c7.114,7.149,15.03,13.608,22.607,20.21c6.874,5.989,14.427,14.666,23.023,18.082c1.551,0.617,3.276-1.566,2.239-2.913
			c-5.135-6.673-13.898-11.334-20.545-16.403c-9.339-7.12-18.209-14.889-27.584-21.954c-0.004-0.052-0.009-0.104-0.013-0.156
			c-0.208-2.785-0.475-5.56-0.779-8.33c8.26,8.676,18.924,15.462,28.277,22.802c5.4,4.237,10.784,8.497,16.033,12.922
			c2.056,1.732,7.328,4.875,8.388,7.364c0.352,0.829,1.17,1.063,1.944,0.916c0.229,1.863,0.493,3.721,0.849,5.562
			C139.829,107.296,136.462,108.093,134.079,108.233z"/>
	</g>
</g>
<g>
</g>
<g>
</g>
<g>
</g>
<g>
</g>
<g>
</g>
<g>
</g>
<g>
</g>
<g>
</g>
<g>
</g>
<g>
</g>
<g>
</g>
<g>
</g>
<g>
</g>
<g>
</g>
<g>
</g>
</svg>
