<?xml version="1.0" encoding="iso-8859-1"?>
<!-- Generator: Adobe Illustrator 16.0.0, SVG Export Plug-In . SVG Version: 6.00 Build 0)  -->
<!DOCTYPE svg PUBLIC "-//W3C//DTD SVG 1.1//EN" "http://www.w3.org/Graphics/SVG/1.1/DTD/svg11.dtd">
<svg version="1.1" id="Capa_1" xmlns="http://www.w3.org/2000/svg" xmlns:xlink="http://www.w3.org/1999/xlink" x="0px" y="0px"
	 width="185.635px" height="185.635px" viewBox="0 0 185.635 185.635" style="enable-background:new 0 0 185.635 185.635;"
	 xml:space="preserve">
<g>
	<path d="M173.533,54.982c-6.036-5.134-14.948-8.228-23.337-8.101c0.563-2.535-0.367-5.458-0.769-7.982
		c-0.71-4.455-1.216-8.984-1.422-13.493c-0.034-0.739-0.439-1.259-0.966-1.528c-0.096-0.703-0.347-1.409-0.976-2.054
		c-5.992-6.133-11.668-14.903-19.598-18.729c-0.293-1.629-1.462-3.07-3.628-3.087c-20.331-0.155-40.6,2.11-60.908,1.777
		C44.574,1.501,27.756-0.818,10.995,4.787c-1.3,0.435-1.664,1.968-1.152,2.977C9.727,7.994,9.648,8.262,9.62,8.569
		c-2.886,30.977-3.938,62.214-4.637,93.31c-0.323,14.343-0.405,28.677-0.863,43.02c-0.293,9.19-1.854,20.418,1.334,29.302
		c4.397,12.255,32.588,10.655,42.066,11.139c31.039,1.579,62.021-3.725,93.091-2.599c2.739,0.099,3.94-2.155,3.712-4.276
		c1.415,0.338,2.954-0.229,3.459-2.184c2.208-8.554,2.632-17.488,3.257-26.268c0.475-6.657,3.912-16.925,1.26-23.073
		c-0.066-0.152-0.197-0.213-0.285-0.336c9.567-14.096,17.698-29.512,25.303-42.063c0.36-0.169,0.712-0.412,1.035-0.813
		C185.606,74.713,181.638,61.876,173.533,54.982z M124.329,7.443c4.562,6.058,9.32,12.102,14.521,17.625
		c-1.41,0.599-2.783,1.331-4.138,1.929c-3.029,1.336-6.067,2.653-9.103,3.974c0.006-7.806,0.021-15.879-1.54-23.47
		C124.149,7.472,124.253,7.475,124.329,7.443z M144.07,144.87c-0.858,9.886-1.091,19.882-2.415,29.721
		c-0.026,0.199,0.024,0.367,0.028,0.555c-0.342-0.104-0.664-0.239-1.072-0.253c-22.041-0.691-43.967,1.408-65.955,2.623
		c-11.299,0.625-22.568,0.604-33.868,0.058c-15.352-0.742-29.33-0.706-29.182-18.402c0.417-49.897,5.952-100.817,1.818-150.586
		C29.632,7.683,45.731,9.007,61.93,9.753c18.856,0.869,38.02-1.193,56.935-1.846c0.093,9.603-0.467,19.094-0.692,28.723
		c-0.073,3.118,3.157,4.257,5.611,3.22c4.438-1.875,8.875-3.752,13.307-5.641c1.901-0.811,4.22-1.525,6.169-2.628
		c-0.269,2.359-0.439,4.732-0.516,7.119c-0.085,2.675-0.305,6.511,1.213,8.988c-0.72,0.169-1.458,0.293-2.151,0.522
		c-0.525,0.173-0.9,0.503-1.192,0.885c-0.554,0.145-1.103,0.394-1.615,0.89c-22.552,21.828-34.141,53.214-60.554,71.307
		c-0.38,0.26-0.652,0.566-0.853,0.895c-0.913,0.18-1.773,0.747-2.124,1.693c-5.504,14.827-8.42,30.817-10.531,46.447
		c-0.329,2.433,0.946,4.728,3.647,4.788c16.852,0.374,31.689-7.723,47.782-11.342c2.018-0.452,2.768-2.017,2.667-3.596
		c9.589-5.431,17.943-13.708,25.431-23.218C144.247,139.902,144.25,142.802,144.07,144.87z M73.831,162.494
		c0.867,0.847,1.728,1.697,2.708,2.458c0.659,0.511,1.429,1.1,2.251,1.66c-1.916,0.33-3.843,0.607-5.799,0.749
		C73.234,165.731,73.557,164.118,73.831,162.494z M78.146,162.869c-1.368-0.874-2.646-1.906-3.86-3.012
		c0.278-1.575,0.544-3.152,0.817-4.729c1.645,1.583,3.336,3.115,5.122,4.562c2.075,1.683,4.242,3.573,6.554,5.066
		c-1.053,0.283-2.099,0.602-3.157,0.856C81.899,164.584,79.771,163.906,78.146,162.869z M77.593,153.809
		c3.286,0.963,6.285,2.938,8.8,5.201c0.923,0.83,1.715,1.771,2.456,2.752c-1.868-1.334-3.879-2.512-5.739-3.812
		C81.227,156.633,79.393,155.243,77.593,153.809z M89.647,154.792c-4.06-3.099-8.632-5-13.623-4.757
		c1.141-6.02,2.306-12.034,3.295-18.076c5.254,0.577,9.79,3.309,10.145,9.439c0.14,2.427,2.076,3.655,4.355,3.318
		c5.141-0.76,6.743,2.969,4.553,7.118c-1.135,2.149,0.235,5.31,2.951,5.142c2.602-0.161,4.652,0.412,6.653,1.146
		c-3.942,1.156-7.837,2.486-11.737,3.777C94.664,159.031,91.842,156.468,89.647,154.792z M95.536,137.913
		c-0.438-1.24-1.066-2.353-1.776-3.392c0.13-0.086,0.262-0.168,0.376-0.311c9.456-11.829,21.466-20.812,32.638-30.916
		c10.248-9.27,20.562-22.612,28.289-34.2c1.304,0.931,2.566,1.838,3.709,2.716c1.096,0.843,2.644,2.188,4.381,3.534
		c-19.764,22.616-30.594,54.103-57.452,69.479C104.417,140.851,100.757,138.159,95.536,137.913z M122.5,99.021
		c-10.884,10.527-23.036,19.747-30.969,32.883c-3.046-2.772-7.192-4.269-11.551-4.06c0.078-0.528,0.18-1.051,0.254-1.579
		c0.304-0.054,0.615-0.129,0.938-0.306c27.368-15.026,40.104-45.88,60.506-68.257c2.571,3.306,6.265,6.232,9.937,8.911
		C139.977,75.397,132.905,88.957,122.5,99.021z M171.124,80.619c-17.394,26.204-33.427,51.274-54.646,74.546
		c-1.944-3.133-6.372-4.479-10.438-4.895c0.187-1.048,0.2-2.038,0.136-2.995c0.051-0.011,0.097-0.003,0.149-0.021
		c29.163-10.511,43.313-46.126,62.327-68.401c1.146,0.522,2.274,0.876,3.318,0.91C171.667,80.001,171.369,80.249,171.124,80.619z
		 M174.524,74.228c-0.124-0.134-0.251-0.28-0.376-0.44c-0.859-1.099-2.995-1.856-4.163-2.597c-4.142-2.63-8.172-5.443-12.159-8.301
		c-1.377-0.987-8.02-7.058-12.814-9.676c0.004-0.023,0.016-0.045,0.02-0.068c7.302-0.057,13.967,1.138,20.55,4.91
		c3.675,2.105,6.859,5.4,8.443,9.356C174.981,69.803,174.908,72.02,174.524,74.228z"/>
</g>
<g>
</g>
<g>
</g>
<g>
</g>
<g>
</g>
<g>
</g>
<g>
</g>
<g>
</g>
<g>
</g>
<g>
</g>
<g>
</g>
<g>
</g>
<g>
</g>
<g>
</g>
<g>
</g>
<g>
</g>
</svg>
