<?xml version="1.0" encoding="iso-8859-1"?>
<!-- Generator: Adobe Illustrator 16.0.0, SVG Export Plug-In . SVG Version: 6.00 Build 0)  -->
<!DOCTYPE svg PUBLIC "-//W3C//DTD SVG 1.1//EN" "http://www.w3.org/Graphics/SVG/1.1/DTD/svg11.dtd">
<svg version="1.1" id="Capa_1" xmlns="http://www.w3.org/2000/svg" xmlns:xlink="http://www.w3.org/1999/xlink" x="0px" y="0px"
	 width="195.54px" height="195.54px" viewBox="0 0 195.54 195.54" style="enable-background:new 0 0 195.54 195.54;"
	 xml:space="preserve">
<g>
	<g>
		<path d="M173.376,86.165c0.937-10.149,3.498-21.917,1.357-31.992c-0.417-1.961-2.101-2.922-3.826-2.959
			c-1.746-7.126-10.968-12.364-16.269-16.862c-7.898-6.701-15.611-14.09-23.989-20.243c0.792-2.315,0.044-5.233-2.97-6.174
			C96.338-1.847,63.339-1.789,31.17,3.796c-1.473,0.256-2.063,1.453-2.011,2.673C27.601,6.39,25.986,7.388,25.807,9.5
			c-1.384,16.297-13.378,173.448,1.692,173.315c0.165-0.002,0.299-0.06,0.453-0.082c0.375,0.527,0.896,0.962,1.649,1.147
			c23.112,5.702,47.309,7.823,70.992,9.516c20.42,1.46,48.422,5.357,67.684-3.325c2.115-0.953,2.318-3.12,1.479-4.85
			c3.272-3.016,0.762-10.106,0.341-13.637c-1.606-13.453-1.12-27.04-0.393-40.535C170.51,116.06,171.994,101.11,173.376,86.165z
			 M100.592,184.057c-23.437-1.421-46.693-5.091-70.117-6.471c-0.275-0.496-0.643-0.957-1.208-1.297
			c2.574,1.548,1.267-0.009,1.056-3.478c-0.31-5.084-0.013-10.255,0.101-15.341c0.321-14.211,0.205-28.424,0.202-42.638
			C30.62,79.784,34.802,44.498,32.144,9.5c-0.004-0.039-0.023-0.064-0.027-0.103c30.928-0.308,60.688-1.662,90.72,6.913
			c0.11,0.294,0.273,0.598,0.496,0.908c6.061,8.493,14.762,15.202,22.648,21.931c3.979,3.395,7.953,6.795,11.865,10.269
			c3.041,2.702,4.944,5.185,8.628,6.023c-2.099,9.817-1.641,20.759-2.547,30.722c-1.498,16.452-3.087,32.893-3.883,49.398
			c-0.096,1.973,0.246,36.289,4.837,47.219C143.494,182.461,122.262,185.371,100.592,184.057z"/>
		<g>
			<path d="M96.666,49.395c0.066-0.028,0.118-0.032,0.185-0.058C96.847,49.326,96.801,49.339,96.666,49.395z"/>
			<path d="M99.317,85.919C99.306,85.922,99.438,85.994,99.317,85.919L99.317,85.919z"/>
			<path d="M102.963,83.855c-0.055-0.105-0.099-0.136-0.148-0.204c0.082-0.276,0.155-0.553,0.198-0.852
				c0.236-1.649-0.166-3.374-0.254-5.037c-0.237-4.429-0.266-8.875-0.19-13.31c0.062-3.727,2.297-18.289-5.718-15.114
				c0.025,0.064-1.996,1.226-2.492,2.071c-0.821,1.403-0.683,3.188-0.694,4.756c-0.038,4.598,0.024,9.193,0.26,13.784
				c0.208,4.033,0.756,8.131,1.998,11.981c0.434,1.342,1.193,2.69,2.449,3.425c0.614,0.36,0.854,0.505,0.946,0.564
				c0.014-0.004,0.199,0.078,1.059,0.522C101.921,87.238,104.146,85.508,102.963,83.855z"/>
		</g>
		<path d="M152.623,94.26c-9.848-14.562-29.574-48.022-49.816-47.508c-3.882,0.099-5.839,5.699-2.066,7.63
			c14.036,7.184,23.733,18.237,33.494,30.455c3.009,3.767,5.812,7.694,8.59,11.631c-0.299-0.423-9.23,8.562-11.683,11.037
			c-4.611-5.605-10.469-10.47-14.925-16.276c-5.406-7.045-10.171-14.536-14.923-22.027c-1.159-1.826-3.835-0.235-2.88,1.684
			c4.329,8.688,9.71,16.827,15.352,24.711c3.69,5.155,7.869,12.125,13.144,16.267c-3.86,3.938-7.715,7.882-11.5,11.888
			c-3.082-5.96-9.263-12.004-12.528-16.5c-3.771-5.193-7.954-12.607-12.98-17.936c2.042-0.419,4.121-0.581,6.21-0.596
			c3.068,5.469,6.398,10.666,10.158,15.765c2.858,3.875,7.576,13.004,13.41,12.146c2.062-0.303,2.262-3.444,0.566-4.335
			c-0.592-0.311-3.054-3.326-3.995-4.315c-2.783-2.918-5.339-6.045-7.949-9.115c-2.979-3.5-6.021-6.881-9.089-10.249
			c1.767-0.58,2.177-3.436,0.388-4.424c-33.866-18.702-61.36,38.339-49.566,65c1.556,3.515,6.288,2.54,8.084,0
			c5.237-7.409,10.744-14.492,17.004-21.064c5.848-6.14,12.2-8.484,18.971-12.002c-0.908,11.471-1.066,30.224,8.163,28.155
			c0.215-0.048,0.362-0.184,0.552-0.268c1.173,0.608,2.666,0.595,3.978-0.588c15.521-14.008,30.294-28.745,45.106-43.493
			C153.308,98.52,153.789,95.985,152.623,94.26z M55.798,136.279c-0.582-4.014-0.354-8.091,0.46-12.092
			c0.793,2.433,1.741,4.947,3.526,6.597c0.018,0.017,0.04,0.023,0.058,0.038C58.406,132.695,57.051,134.537,55.798,136.279z
			 M63.213,126.58c-0.596-1.646-1.483-3.15-2.312-4.819c-0.837-1.685-1.587-3.41-2.312-5.146c0.575-1.396,1.247-2.757,1.961-4.099
			c0.712,4.633,2.006,9.407,4.196,12.235C64.229,125.358,63.716,125.968,63.213,126.58z M68.614,120.434
			c-1.128-1.976-2.254-5.002-2.622-6.031c-0.855-2.401-1.51-4.892-2.006-7.412c1.607-2.232,3.409-4.327,5.359-6.255
			c0.938,2.137,1.857,4.275,2.924,6.356c0.897,1.752,2.285,4.464,4.094,6.231C73.699,115.382,71.1,117.814,68.614,120.434z
			 M80.977,110.221c-1.02-0.998-2.143-1.943-3.032-3.114c-1.888-2.488-3.418-5.269-5.016-7.946c-0.126-0.21-0.357-0.603-0.655-1.08
			c1.139-0.954,2.329-1.826,3.544-2.658c1.862,2.734,3.72,5.473,5.6,8.195c1.006,1.458,2.014,3.246,3.19,4.846
			C83.393,108.942,82.182,109.531,80.977,110.221z M95.033,107.58c-1.457-0.397-2.932-0.521-4.41-0.456
			c-1.438-2.271-3.604-4.438-5.333-6.494c-2.038-2.423-4.051-4.866-6.069-7.305c1.664-0.925,3.381-1.717,5.133-2.388
			c3.356,5.528,7.224,10.875,10.956,16.203C95.218,107.288,95.1,107.423,95.033,107.58z M104.09,135.925
			c-0.021-0.133-0.039-0.267-0.061-0.399c-0.459-2.842-0.692-5.698-0.892-8.568c-0.179-2.584-0.294-5.174-0.424-7.763
			c2.117,3.78,4.615,7.84,7.373,10.28C108.09,131.627,106.066,133.753,104.09,135.925z"/>
		<path d="M136.553,92.069c-0.35-0.632-0.867-0.998-1.433-1.229c-0.203-0.219-0.483-0.51-0.944-1.004
			c-1.1-1.175-2.315-2.253-3.416-3.436c-3.338-3.583-6.566-7.266-9.789-10.951c-3.206-3.665-6.399-7.338-9.506-11.088
			c-1.011-1.219-2.027-2.431-3.042-3.646c-0.859-1.027-1.256-1.215-1.504-1.072c-0.034-0.451-0.294-0.898-0.833-1.116
			c-0.404-0.164-0.744-0.064-1.124,0.104c-0.405,0.178-0.583,0.663-0.611,1.067c-0.079,1.102-0.153,0.888,0.295,1.964
			c0.821,1.971,2.053,3.691,3.285,5.426c4.122,5.803,8.452,11.461,12.855,17.052c3.11,3.947,6.177,8.729,10.096,11.908
			C134.109,98.664,138.902,96.338,136.553,92.069z"/>
	</g>
</g>
<g>
</g>
<g>
</g>
<g>
</g>
<g>
</g>
<g>
</g>
<g>
</g>
<g>
</g>
<g>
</g>
<g>
</g>
<g>
</g>
<g>
</g>
<g>
</g>
<g>
</g>
<g>
</g>
<g>
</g>
</svg>
