<?xml version="1.0" encoding="iso-8859-1"?>
<!-- Generator: Adobe Illustrator 16.0.0, SVG Export Plug-In . SVG Version: 6.00 Build 0)  -->
<!DOCTYPE svg PUBLIC "-//W3C//DTD SVG 1.1//EN" "http://www.w3.org/Graphics/SVG/1.1/DTD/svg11.dtd">
<svg version="1.1" id="Capa_1" xmlns="http://www.w3.org/2000/svg" xmlns:xlink="http://www.w3.org/1999/xlink" x="0px" y="0px"
	 width="188.208px" height="188.208px" viewBox="0 0 188.208 188.208" style="enable-background:new 0 0 188.208 188.208;"
	 xml:space="preserve">
<g>
	<path d="M110.391,0.371C55.406-4.648,7.74,41.986,2.495,94.967c-4.822,48.7,42.894,104.023,93.401,90.828
		c0.371,0.272,0.791,0.511,1.303,0.675c24.164,7.744,47.309-11.936,62.542-28.51c16.471-17.921,25.536-40.566,26.271-64.798
		C187.309,50.268,154.947,4.438,110.391,0.371z M176.992,100.928c-1.963-2.014-4.68-3.585-6.812-5.07
		c-1.941-1.354-3.959-2.595-6.01-3.78c-0.41-10.151-4.794-19.332-15.372-23.648c0.487-1.087,0.212-2.145-0.446-2.929
		c9.972,7.657,19.711,15.701,29.119,24.362C177.598,93.585,177.398,97.273,176.992,100.928z M153.559,90.409
		c1.051,0.578,2.061,1.214,3.092,1.818c0.072,0.578,0.177,1.119,0.212,1.738c0.213,3.889-0.566,7.766-1.911,11.521
		c-0.531-0.22-1.045-0.475-1.581-0.682c-1.524-0.59-2.601,1.971-1.112,2.64c0.537,0.242,1.047,0.539,1.576,0.795
		c-2.539,5.785-6.279,11.198-9.913,15.744c-12.3,15.386-32.075,27.204-52.127,26.129c-0.393-0.259-0.771-0.549-1.165-0.805
		c-1.038-0.673-2.06-1.371-3.095-2.049c21.2-21.576,39.928-47.78,57.142-72.669c4.853,3.986,8.982,7.48,10.969,13.03
		c-0.119-0.056-0.234-0.117-0.353-0.172C153.318,86.52,151.596,89.327,153.559,90.409z M89.381,93.824
		c2.011-2.576,4.076-5.105,6.102-7.667c3.57,1.572,7.09,3.251,10.604,4.947c3.485,1.683,7.162,3.909,10.98,4.831
		c-1.963,2.694-3.901,5.414-5.803,8.17c-0.142-0.398-0.455-0.734-1.031-0.862C102.744,101.591,95.977,97.695,89.381,93.824z
		 M109.756,106.33c-2.715,3.984-5.387,8.003-8.003,12.039c-2.69-1.979-5.733-3.522-8.608-5.188
		c-4.209-2.438-8.485-4.746-12.849-6.891c2.068-3.134,4.062-6.076,5.968-8.536c0.375-0.484,0.766-0.956,1.142-1.439
		c3.441,2.134,6.895,4.245,10.461,6.171C101.426,104.407,105.589,106.743,109.756,106.33z M107.788,88.191
		c-3.479-1.483-6.964-2.945-10.487-4.32c2.331-2.937,4.698-5.844,7.047-8.767c4.315,2.057,8.395,4.589,12.522,6.989
		c2.345,1.364,5.026,3.206,7.817,3.788c-1.91,2.405-3.789,4.852-5.637,7.336C115.689,90.979,111.48,89.765,107.788,88.191z
		 M117.689,78.035c-3.676-1.98-7.313-4.006-11.135-5.677c1.895-2.346,3.805-4.679,5.709-7.016c3.7,1.282,7.28,2.793,10.717,4.741
		c3.398,1.927,6.176,4.538,9.144,6.946c-1.688,1.932-3.36,3.889-5.001,5.893C124.321,80.897,120.688,79.649,117.689,78.035z
		 M114.275,62.867c3.818-4.666,7.656-9.316,11.556-13.919c7.21,5.118,14.353,10.32,21.39,15.696c-1.146-0.588-2.6-0.619-3.703,0.426
		c-2.926,2.77-5.764,5.693-8.529,8.727C129.582,68.476,121.6,65.166,114.275,62.867z M74.582,102.039
		c-5.723,7.571-12.802,15.771-17.239,24.531c-10.451-19.936-5.687-39.969,6.855-58.55c6.447-9.552,15.533-17.326,25.798-22.446
		c10.589-5.281,18.252-1.795,28.258,1.37C101.844,63.045,88.274,83.927,74.582,102.039z M79.264,107.855
		c3.743,2.1,7.403,4.326,11.014,6.647c3.249,2.091,6.425,4.546,9.906,6.281c-2.135,3.318-4.248,6.635-6.333,9.934
		c-3.014-1.334-6.094-2.507-8.953-4.28c-4.259-2.643-8.029-6.062-11.655-9.498C75.321,113.902,77.321,110.818,79.264,107.855z
		 M95.598,8.704c0.074,0.298,0.252,0.583,0.592,0.792c25.769,15.905,51.511,31.509,70.685,55.47
		c2.226,2.781,6.008-1.135,3.881-3.881c-18.177-23.473-45.608-38.492-71.17-52.753c2.353-0.116,4.713-0.13,7.076-0.032
		c38.106,1.574,64.621,36.819,69.965,72.052c-26.792-28.866-64.876-47.688-97.975-68.263C84.182,10.377,89.862,9.274,95.598,8.704z
		 M74.995,13.337c9.343,6.74,18.736,13.258,28.097,19.736c-4.353,0.109-8.924,1.272-13.521,3.294
		c-0.122-0.24-0.289-0.461-0.54-0.616c-4.359-2.691-9.16-4.32-13.447-7.288c-4.372-3.027-8.384-6.596-12.485-9.989
		C66.952,16.483,70.934,14.783,74.995,13.337z M60.488,19.891c4.417,3.879,8.707,7.931,13.389,11.492
		c3.464,2.634,7.461,5.75,11.821,6.887c-3.839,2.077-7.659,4.678-11.344,7.748c-3.709-2.756-7.844-5.043-11.584-7.749
		c-4.767-3.449-9.321-7.203-13.893-10.911C52.57,24.591,56.47,22.123,60.488,19.891z M46.778,28.95
		c4.638,4.001,9.281,7.99,14.079,11.801c3.369,2.675,6.846,5.645,10.672,7.766c-2.956,2.695-5.814,5.628-8.487,8.801
		c-8.326-6.808-17.688-13.229-27-18.581C39.378,35.226,42.976,31.956,46.778,28.95z M34.388,40.469
		c9.116,5.991,16.942,14.235,26.218,19.854c-2.583,3.324-4.973,6.833-7.102,10.466c0.312-0.663,0.259-1.495-0.511-1.831
		c-5.958-2.599-11.089-6.223-16.067-10.39c-3.177-2.659-6.972-5.559-10.075-8.704C29.16,46.587,31.686,43.452,34.388,40.469z
		 M25.469,51.974c2.843,3.717,6.754,6.969,9.969,9.901c3.872,3.53,11.271,11.434,17.205,9.756c0.24-0.068,0.432-0.23,0.601-0.411
		c-2.471,4.27-4.583,8.702-6.231,13.187c-5.384-1.595-10.93-7.212-14.765-10.592c-4.383-3.862-8.528-8.043-12.318-12.505
		C21.572,58.091,23.456,54.993,25.469,51.974z M18.561,64.138c4.219,5.634,9.396,10.743,14.468,15.412
		c3.056,2.813,8.045,8.059,12.845,8.185c-1.527,4.87-2.507,9.768-2.759,14.559c-0.034-0.024-0.075-0.052-0.109-0.078
		c-3.995-3.055-7.998-6.102-11.965-9.192c-3.779-2.941-7.49-5.973-11.027-9.201c-1.146-1.047-6.052-4.674-5.982-6.408
		c0.011-0.254-0.135-0.404-0.314-0.501C14.967,72.529,16.63,68.275,18.561,64.138z M104.357,179.298
		c-0.521-0.596-1.326-0.947-2.4-0.675c-0.24,0.062-0.479,0.099-0.719,0.156c-0.611-0.117-1.221-0.166-1.832-0.319
		c-1.944-0.487-3.45,0.275-4.312,1.508c-5.15,0.77-10.182,0.886-15.078,0.483c-0.039-0.143-0.074-0.286-0.145-0.428
		c-2.017-4.063-7.864-7.54-11.155-10.614c-6.317-5.901-12.466-11.987-18.589-18.089c-11.11-11.071-21.734-22.709-33.029-33.581
		c-0.368-0.354-1.003-0.492-1.45-0.188c-0.341-0.375-0.575-0.804-0.701-1.282c0.001-0.12-0.192-0.151-0.213-0.029
		c-0.055,0.32,0.542,1.611,0.672,1.499c-0.395,0.343-0.456,1.018-0.187,1.45c7.685,12.385,19.695,22.925,29.721,33.353
		c6.637,6.903,13.465,13.639,20.368,20.275c1.748,1.681,3.891,4.222,6.212,6.363c-34.759-7.604-60.245-43.102-60.795-79.401
		c17.039,13.048,30.771,29.348,45.098,45.241c10.97,12.168,23.544,26.071,39.015,32.374c2.008,0.816,3.84-2.342,2.143-3.683
		c-16.012-12.65-30.667-25.025-44.861-39.792c-12.749-13.262-25.726-26.384-41.393-36.173c0.01-0.927-0.04-1.853,0.003-2.78
		c0.235-5.044,0.99-10.001,2.16-14.846c1.358,4.661,8.014,9.248,10.796,11.721c4.441,3.945,9.047,7.708,13.713,11.381
		c1.478,1.164,3.626,3.46,5.797,4.861c0.668,9.108,4.144,17.604,11.51,24.439c0.185,0.172,0.389,0.267,0.59,0.374
		c0.011,1.36,0.266,2.723,1.273,2.186l0.001,0.001l0.001-0.002c0.021-0.011,0.032-0.001,0.053-0.013
		c5.441-3.244,10.539-9.456,15.296-16.227c5.366,5.517,12.352,12.158,20.084,14.794c-2.487,3.941-4.949,7.852-7.392,11.687
		c-2.826-1.868-5.663-3.721-8.474-5.611c-2.213-1.486-4.373-3.046-6.545-4.59c-0.713-0.507-5.603-3.12-3.037-2.711
		c0.406,0.065,0.582-0.502,0.172-0.627c-7.975-2.424,8.281,11.614,9.326,12.413c2.078,1.591,4.182,3.133,6.293,4.662
		c-0.291,0.452-0.583,0.913-0.873,1.362c-0.574,0.889,0.31,1.789,1.164,1.695c-0.209,1.234,0.321,2.567,1.953,3.077
		c2.855,0.893,5.703,1.419,8.539,1.736c1.878,1.421,3.735,2.875,5.559,4.385c5.742,4.757,12.812,12.326,20.219,16.496
		C114.141,179.076,109.262,179.761,104.357,179.298z M125.216,175.193c-7.872-5.995-15.694-12.343-23.731-18.285
		c4.312-0.298,8.549-1.202,12.677-2.551c5.522,3.325,10.694,7.218,16.429,10.193c2.844,1.476,6.616,2.972,9.354,1.187
		C135.312,169.494,130.38,172.806,125.216,175.193z M140.51,165.287c0.271-0.24,0.545-0.47,0.787-0.792
		c0.992-1.316-0.839-2.511-2.001-2.001c-3.884,1.707-9.737-2.244-12.973-3.982c-3.107-1.671-6.132-3.49-9.229-5.177
		c4.608-1.774,9.026-4.173,13.24-6.938c3.316,2.068,6.637,4.131,9.991,6.136c2.671,1.596,5.571,3.705,8.585,4.941
		C146.266,160.206,143.466,162.851,140.51,165.287z M151.656,154.538c-2.868-2.068-6.455-3.456-9.531-5.084
		c-3.016-1.597-5.992-3.268-8.975-4.929c3.174-2.274,6.145-4.825,8.994-7.484c2.593,1.188,5.146,2.456,7.651,3.866
		c2.979,1.676,5.755,3.67,8.869,5.062C156.538,148.827,154.203,151.714,151.656,154.538z M163.208,139.398
		c-0.835,1.324-1.744,2.675-2.698,4.037c-4.479-3.686-10.216-6.467-15.928-8.653c2.836-2.834,5.404-5.835,7.803-8.883
		c4.692,2.601,9.432,5.172,14.153,7.633c0.028,0.014,0.056,0.013,0.083,0.026C165.548,135.539,164.413,137.488,163.208,139.398z
		 M168.127,130.556c-3.688-3.431-8.572-5.71-13.386-7.718c2.299-3.242,4.287-7.019,5.858-11.039
		c1.228,0.699,2.459,1.392,3.681,2.102c2.749,1.597,5.675,3.639,8.774,4.742C171.682,122.707,170.051,126.693,168.127,130.556z
		 M164.693,110.042c-0.973-0.497-1.956-0.967-2.934-1.45c1.223-3.801,2.035-7.757,2.336-11.661c0.84,0.572,1.705,1.106,2.532,1.703
		c3.113,2.242,6.013,6.077,9.589,7.558c-0.512,2.852-1.115,5.685-1.912,8.47C171.234,112.926,167.758,111.607,164.693,110.042z"/>
</g>
<g>
</g>
<g>
</g>
<g>
</g>
<g>
</g>
<g>
</g>
<g>
</g>
<g>
</g>
<g>
</g>
<g>
</g>
<g>
</g>
<g>
</g>
<g>
</g>
<g>
</g>
<g>
</g>
<g>
</g>
</svg>
