<?xml version="1.0" encoding="iso-8859-1"?>
<!-- Generator: Adobe Illustrator 16.0.0, SVG Export Plug-In . SVG Version: 6.00 Build 0)  -->
<!DOCTYPE svg PUBLIC "-//W3C//DTD SVG 1.1//EN" "http://www.w3.org/Graphics/SVG/1.1/DTD/svg11.dtd">
<svg version="1.1" id="Capa_1" xmlns="http://www.w3.org/2000/svg" xmlns:xlink="http://www.w3.org/1999/xlink" x="0px" y="0px"
	 width="193.736px" height="193.736px" viewBox="0 0 193.736 193.736" style="enable-background:new 0 0 193.736 193.736;"
	 xml:space="preserve">
<g>
	<g>
		<g>
			<path d="M59.889,191.72C59.836,191.847,59.831,191.9,59.889,191.72L59.889,191.72z"/>
			<path d="M146.619,103.806c-0.814-33.696-1.374-67.414-2.884-101.087c-0.147-3.318-4.942-3.347-5.187-0.1
				c-12.722-1.458-26.075-0.443-38.911-1.24C85.208,0.483,70.656-0.93,56.25,0.868c-1.794,0.225-2.818,1.45-3.113,2.79
				c-14.02,5.905-6.253,68.405-5.846,77.923c0.985,23.036,2.434,46.049,3.77,69.066c0.741,12.77-0.174,26.774,2.164,39.341
				c0.221,1.187,0.978,1.861,1.886,2.118c0.033,0.099,0.04,0.194,0.082,0.294c1.037,2.404,4.028,1.202,4.702-0.749
				c0.018-0.016,0.045-0.088,0.078-0.217c-0.041,0.145-0.064,0.221-0.086,0.286c0.021-0.053,0.049-0.114,0.083-0.171
				c0.062-0.101,0.134-0.195,0.204-0.291c0.026-0.022,0.255-0.315,0.292-0.357c0.649-0.766,1.327-1.51,2.009-2.246
				c0.51,0.171,1.094,0.223,1.773,0.03c6.386-1.807,11.702-8.276,16.451-12.556c6.658-5.999,13.181-12.417,20.314-17.904
				c9.5,12.148,22.484,24.696,35.472,32.171c2.224,1.279,4.951-0.675,4.816-2.946c0.051,0.311,0.075,0.631,0.127,0.941
				c0.458,2.711,5.015,2.722,5.465,0C151.361,161.345,147.279,131.156,146.619,103.806z M118.981,11.103
				c-0.106,0.196-0.216,0.391-0.25,0.71c-0.076,0.685,0.39,1.057,0.929,1.118c0.015,0.066,0.074,0.201,0.236,0.527
				c0.277,0.557,0.675,0.979,1.104,1.425c1.311,1.365,2.554,2.798,3.801,4.22c2.684,3.062,5.263,6.403,8.238,9.187
				c2.243,2.099,5.388-1.082,3.352-3.352c-3.608-4.024-7.606-7.831-11.517-11.563c-0.432-0.412-1.716-1.504-3.002-2.224
				c5.647,0.033,11.23-0.397,16.435-1.895c-0.33,10.209-0.403,20.421-0.391,30.634c-4.964-5.929-11.625-10.839-17.412-15.788
				c-5.879-5.028-11.995-9.819-18.396-14.173C107.542,10.349,113.271,10.917,118.981,11.103z M55.045,85.549
				c-0.749-16.208-1.324-32.433-1.325-48.655c-0.001-4.676-1.901-23.207,0.588-29.98c0.507,0.366,1.117,0.648,1.942,0.687
				c13.998,0.67,27.981,1.165,41.971,2.066c6.315,5.933,12.856,11.618,19.201,17.519c6.445,5.995,12.369,13.309,19.583,18.33
				c0.297,0.206,0.613,0.278,0.928,0.296c0.103,17.216,0.494,34.433,0.896,51.641c0.492,21.129-0.805,43.577,0.181,65.312
				c-2.946-1.12-10.877-9.259-13.146-11.189c-8.721-7.423-17.146-15.202-25.569-22.957C84.964,114.505,69.934,100.119,55.045,85.549
				z M64.092,180.327c-0.751-0.114-1.551,0.069-2.253,0.772c-0.442,0.443-0.844,0.916-1.276,1.361
				c0.239-3.849-0.005-7.953-0.373-11.992c0.641,0.982,1.25,1.985,1.991,2.903c1.157,1.434,2.561,3.111,4.152,4.486
				C65.58,178.68,64.805,179.5,64.092,180.327z M69.405,174.611c-1.391-0.952-2.798-1.896-4.026-3.097
				c-2.306-2.259-4.155-4.945-5.856-7.685c-0.257-2.452-0.492-4.815-0.61-6.985c-0.164-3.005-0.34-6.009-0.51-9.014
				c2.872,5.055,6.016,9.94,9.509,14.591c1.517,2.02,3.784,5.675,6.419,7.484C72.662,171.465,70.969,173.017,69.405,174.611z
				 M77.698,166.794c-0.355-0.344-0.75-0.681-1.22-1.082c-2.001-1.707-3.783-3.675-5.531-5.632
				c-3.895-4.361-7.323-9.147-10.516-14.039c-0.567-0.869-1.601-0.735-2.138-0.163c-0.171-3.018-0.342-6.035-0.514-9.053
				c4.034,4.418,8.032,8.869,12.02,13.326c2.903,3.245,5.863,6.443,8.728,9.724c0.974,1.114,2.115,2.479,3.524,3.182
				C80.589,164.288,79.127,165.525,77.698,166.794z M84.882,160.714c-1.43-4.516-8.303-9.222-11.286-12.24
				c-5.302-5.365-10.644-10.701-16.062-15.953c-0.279-4.895-0.53-9.792-0.803-14.688c5.587,6.144,11.171,12.29,16.692,18.491
				c5.08,5.705,10.743,15.09,17.408,19.705C88.853,157.555,86.865,159.095,84.882,160.714z M99.749,149.399
				c-1.562,1.104-3.193,2.33-4.81,3.529c-3.464-6.703-11.325-12.648-16.269-17.782c-7.236-7.514-14.629-14.851-22.196-22.022
				c-0.196-3.568-0.389-7.137-0.585-10.706c12.411,17.775,29.138,32.003,45.691,46.421
				C100.959,148.835,100.332,148.987,99.749,149.399z M55.577,96.682c-0.093-1.846-0.174-3.694-0.264-5.541
				c14.807,17.555,32.758,33.225,49.424,48.8c1.666,1.557,6.206,6.55,11.598,11.843c-4.546-3.86-9.165-7.547-13.524-11.129
				C86.119,126.937,68.855,113.84,55.577,96.682z M108.466,154.888c4.284,3.8,8.507,7.655,12.595,11.625
				C116.611,162.862,112.243,159.12,108.466,154.888z M125.514,160.12c5.302,4.35,10.391,7.492,13.704,6.968
				c0.235,3.879,0.531,7.738,0.958,11.551C136.445,171.806,131.254,165.737,125.514,160.12z"/>
		</g>
		<path d="M144.045,128.641c-7.805-6.799-17.403-12.012-25.577-18.474c-9.009-7.122-17.642-14.739-25.99-22.631
			c2.259-1.714,4.527-3.419,6.754-5.185c4.43,5.604,10.254,10.627,16.592,13.721c3.197,3.331,6.479,6.583,9.864,9.702
			c4.139,3.81,9.465,9.254,15.029,10.612c1.544,0.376,2.576-1.455,1.517-2.606c-3.808-4.143-9.695-6.865-14.096-10.457
			c-2.721-2.222-5.302-4.597-7.863-6.993c0.851-0.53,1.449-1.425,1.435-2.669c-0.045-3.686-0.426-7.358-1.023-10.996
			c1.022,0.94,2.038,1.89,3.041,2.861c3.796,3.673,7.538,8.944,12.499,10.953c1.135,0.46,2.095-1.048,1.525-1.984
			c-2.909-4.778-8.967-8.618-13.185-12.31c-1.533-1.343-3.109-2.626-4.709-3.877c-0.199-0.922-0.388-1.846-0.616-2.76
			c-0.61-2.442-1.503-6.302-3.473-8.583c0.273-0.147,0.517-0.364,0.777-0.538c2.57,2.697,5.148,5.387,7.679,8.122
			c4.279,4.625,8.085,9.957,12.691,14.231c1.352,1.255,3.7-0.38,2.628-2.028c-5.337-8.2-13.449-15.242-20.857-22.043
			c1.364-1.305,2.618-2.763,3.853-4.053c4.354,5.657,9.196,11.23,14.458,15.917c1.504,1.34,3.545-0.701,2.206-2.205
			c-4.787-5.376-10.162-10.104-14.883-15.537l7.385-7.456c0.783,0.521,1.561,1.073,2.347,1.584c2.053,1.335,3.806-1.504,2.443-3.166
			C120.216,29.948,93.881,17.458,73.771,1.872c-1.185-0.918-2.874,0.641-1.694,1.694c7.598,6.782,15.479,13.696,23.557,20.456
			c-0.517,0.251-0.971,0.665-1.284,1.297c-1.084,2.188-2.005,4.43-2.834,6.697c-10.584-8.06-19.148-17.56-28.166-27.301
			c-1.312-1.417-3.214,0.63-2.071,2.071c8.441,10.633,17.6,21.741,28.692,29.717c0.037,0.027,0.072,0.025,0.108,0.049
			c-0.768,2.874-1.33,5.799-1.503,8.805c-0.268-0.048-0.553-0.037-0.832-0.051c1.1-0.866,1.343-2.705-0.123-3.469
			c-2.766-1.441-5.398-2.186-7.922-4.18c-3.192-2.522-5.962-5.606-8.666-8.626c-5.294-5.915-9.899-12.406-15.236-18.279
			c-1.135-1.249-3.384,0.441-2.36,1.821c5.48,7.384,10.758,14.913,16.72,21.925c2.732,3.213,8.16,9.995,13.407,11.269
			c-0.463,0.096-0.92,0.192-1.346,0.268c-1.429,0.257-2.858,0.537-4.289,0.812c0.052-0.388-0.016-0.791-0.284-1.159
			c-3.613-4.975-9.681-8.898-14.376-12.807c-3.598-2.996-7.209-5.744-11.077-8.262c-0.951-0.618-1.913,0.743-1.175,1.523
			c2.81,2.972,5.716,5.799,8.839,8.554c4.658,4.11,9.089,9.077,14.064,12.842c-1.838,0.282-3.682,0.509-5.546,0.551
			c-2.729,0.061-4.156,3.372-2.217,5.352c4.691,4.789,9.362,9.716,15.459,12.657c-0.206,0.797-0.44,1.583-0.655,2.377
			c-3.944-4.329-8.777-8.183-12.939-12.129c-4.236-4.016-8.901-10.063-14.542-12.138c-0.918-0.338-1.704,1.021-0.962,1.653
			c4.866,4.135,9.13,9.644,13.533,14.287c3.721,3.924,8.326,10.495,13.546,13.204c-0.556,1.895-1.126,3.786-1.711,5.671
			c-3.058-3.652-7.246-6.765-10.658-9.942c-2.132-1.986-4.237-4.001-6.277-6.083c-0.231-0.235-3.837-3.861-3.896-3.724
			c0.479-1.087-0.923-1.953-1.609-0.941c-1.799,2.652,3.859,7.672,5.261,9.185c2.67,2.881,5.45,5.663,8.224,8.443
			c2.419,2.423,4.731,5.317,7.55,7.27c0.019,0.014,0.042,0.014,0.062,0.027c-0.815,2.565-1.627,5.13-2.443,7.699
			c-1.033-0.933-2.179-1.772-3.216-2.656c-2.334-1.991-4.606-4.056-6.853-6.146c-1.772-1.648-3.497-3.345-5.23-5.034
			c-1.093-1.066-2.554-3.099-3.712-2.552c0.764-0.361,0.194-1.428-0.542-1.286c-2.543,0.491,3.002,6.578,3.383,7.011
			c2.586,2.945,5.438,5.69,8.248,8.42c2.037,1.979,4.219,4.465,6.766,5.909c-0.119,0.382-0.243,0.762-0.361,1.145
			c-1.055,3.422,3.4,5.785,5.844,3.402c0.952-0.928,1.958-1.781,2.947-2.659c7.208,9.566,18.643,17.551,27.297,25.446
			c9.261,8.447,18.02,19.509,28.448,26.434c1.702,1.132,3.52-1.03,2.653-2.653c-5.735-10.742-18.594-19.398-27.571-27.312
			c-8.754-7.716-18.167-17.909-28.447-24.029c2.35-1.965,4.774-3.831,7.21-5.685c8.12,8.214,16.554,16.102,25.173,23.79
			c7.4,6.6,16.394,16.136,25.982,19.451C143.969,132.585,145.522,129.929,144.045,128.641z M123.094,45.434
			c-4.259,0.014-8.51-0.172-12.792-0.099c-1.468-5.331-3.948-10.243-6.879-14.906C109.879,35.646,116.448,40.682,123.094,45.434z
			 M82.143,86.768c1.624-6.705,2.937-13.475,3.312-20.389c0.017-0.323-0.057-0.594-0.171-0.836c0.349-0.768,0.227-1.728-0.761-2.371
			c-3.843-2.498-6.765-5.99-9.711-9.455c1.867-0.293,3.725-0.646,5.575-0.997c2.676-0.509,7.244-0.439,9.763-2.159
			c1.476,0.496,3.432-0.306,3.568-2.37c0.345-5.206,1.982-10.06,4.046-14.769c3.15,4.797,5.69,9.945,6.979,15.608
			c0.502,2.206,2.574,2.624,4.187,1.919c0.131,0.024,0.232,0.086,0.373,0.094c4.378,0.267,8.68,0.868,12.984,0.964
			c-0.935,0.926-1.868,1.851-2.803,2.776c-1.926,1.908-4.528,3.893-6.387,6.181c-0.101,0.089-0.183,0.192-0.252,0.307
			c-0.696,0.903-1.278,1.851-1.637,2.866c-0.16,0.451-0.152,0.913-0.037,1.35c-0.951,0.427-1.7,1.256-1.614,2.409
			c0.104,1.38,0.585,2.776,1.142,4.169c-0.293-0.17-0.571-0.359-0.867-0.525c-1.182-0.662-2.195,1.09-1.057,1.806
			c1.155,0.725,2.265,1.502,3.362,2.291c0.221,0.571,0.449,1.143,0.607,1.705c1.012,3.603,1.657,7.321,2.016,11.057
			c-4.741-2.374-8.922-5.397-12.731-9.206c0.403-2.503-2.591-5.464-5.044-3.61C92.038,79.32,86.997,82.928,82.143,86.768z"/>
	</g>
</g>
<g>
</g>
<g>
</g>
<g>
</g>
<g>
</g>
<g>
</g>
<g>
</g>
<g>
</g>
<g>
</g>
<g>
</g>
<g>
</g>
<g>
</g>
<g>
</g>
<g>
</g>
<g>
</g>
<g>
</g>
</svg>
