<?xml version="1.0" encoding="iso-8859-1"?>
<!-- Generator: Adobe Illustrator 16.0.0, SVG Export Plug-In . SVG Version: 6.00 Build 0)  -->
<!DOCTYPE svg PUBLIC "-//W3C//DTD SVG 1.1//EN" "http://www.w3.org/Graphics/SVG/1.1/DTD/svg11.dtd">
<svg version="1.1" id="Capa_1" xmlns="http://www.w3.org/2000/svg" xmlns:xlink="http://www.w3.org/1999/xlink" x="0px" y="0px"
	 width="196.717px" height="196.717px" viewBox="0 0 196.717 196.717" style="enable-background:new 0 0 196.717 196.717;"
	 xml:space="preserve">
<g>
	<g>
		<path d="M190.215,48.807c-0.575-2.668-3.245-3.343-5.338-2.554c-0.528-1.124-1.548-1.921-2.932-1.895
			c-5.967-2.107-14.003-0.707-20.131-0.589c-16.828,0.322-33.648,1.536-50.443,2.584c-0.013,0-0.021,0.007-0.034,0.008
			C91.14,8.147,44.52,17.83,9.512,26.67c-2.61,0.659-2.955,3.17-1.919,4.931c-6.84,19.608-4.29,45.578-4.094,65.694
			c0.011,1.113,0.041,2.229,0.058,3.344c-0.486-0.377-0.977-0.75-1.463-1.127c-1.188-0.924-2.883,0.707-1.682,1.683
			c1.07,0.868,2.135,1.757,3.201,2.64c0.457,22.205,2.167,44.545,6.064,66.394c0.528,2.964,4.088,3.414,6.204,2.044
			c11.388,10.511,44.809,3.703,57.43,2.57c16.486-1.479,32.993-1.414,49.558-1.785c21.277-0.476,44.013,3.174,64.972,1.16
			c0.387-0.037,0.709-0.15,1.031-0.263c1.451,1.671,4.5,1.123,4.812-1.719C197.936,133.318,198.508,87.209,190.215,48.807z
			 M181.939,52.35c0.13,0.002,0.263,0.014,0.386,0.002c0.044,2.004,0.128,4.01,0.212,6.016c-1.909-0.988-3.932-1.812-5.749-2.671
			c-1.637-0.774-3.303-1.475-4.979-2.156C175.395,53.624,178.931,53.419,181.939,52.35z M160.05,52.905
			c0.941,0.018,1.935,0.069,2.95,0.131c-0.021,0.634,0.237,1.25,0.931,1.563c3.553,1.606,7.044,3.326,10.49,5.146
			c2.77,1.462,5.498,3.569,8.425,4.883c0.069,1.219,0.128,2.439,0.204,3.658c-3.959-3.245-10.871-4.947-15.053-6.899
			c-5.8-2.707-11.423-5.788-17.225-8.475C153.865,52.867,156.958,52.846,160.05,52.905z M148.673,52.943
			c-1.023,0.584-1.572,1.902-0.425,2.886c4.491,3.849,10.269,6.35,15.47,9.075c5.269,2.76,13.482,9.009,19.676,8.323
			c0.187,2.684,0.359,5.367,0.559,8.052c-18.462-10.409-37.55-23.517-58.618-27.529c-0.938-0.179-1.331,1.161-0.397,1.443
			c21.437,6.49,37.342,22.228,57.704,30.558c0.616,0.252,1.177,0.189,1.634-0.065c0.264,3.618,0.52,7.236,0.741,10.853
			c-20.484-14.696-42.612-30.109-65.827-42.954C129.014,53.644,138.844,53.136,148.673,52.943z M98.975,43.243
			c-14.377-6.696-29.086-12.101-44.003-15.456c-0.892-0.201-1.256,1.102-0.378,1.369c18.047,5.477,34.403,13.7,50.076,23.077
			c0.803,1.483,2.062,2.068,3.35,2.023c25.985,15.908,50.259,34.743,77.362,49.356c0.054,1.195,0.146,2.391,0.187,3.585
			c0.071,2.119,0.111,4.242,0.163,6.364c-0.101-0.422-0.279-0.848-0.66-1.262c-16.754-18.156-41.113-29.125-62.982-39.715
			C95.006,59.47,68.664,46.849,45.377,27.593C65.873,25.374,86.112,27.15,98.975,43.243z M41.833,28.007
			c17.94,17.966,40.627,30.114,63.08,41.494c27.285,13.83,52.366,27.541,76.521,46.435c1.803,1.41,3.984,0.25,4.32-1.428
			c0.129,5.465,0.23,10.936,0.323,16.408C133.664,96.69,81.161,61.14,26.634,30.438C31.616,29.52,36.72,28.667,41.833,28.007z
			 M17.392,166.118c0.017-0.304-0.121-0.49-0.302-0.621c-0.36-3.564-0.667-7.13-0.99-10.695c3.255,2.785,6.485,5.6,9.724,8.404
			c1.804,1.562,3.65,3.223,5.56,4.829C23.185,168.061,17.311,167.57,17.392,166.118z M37.534,167.938
			c-3.845-2.817-7.886-5.453-11.565-8.372c-3.405-2.702-6.778-5.432-10.179-8.128c-0.255-2.929-0.474-5.857-0.702-8.785
			c9.604,9.003,19.477,19.062,30.874,24.964C43.085,167.751,40.242,167.864,37.534,167.938z M53.024,167.243
			c-7.878-5.701-16.231-10.424-23.84-16.639c-4.871-3.979-9.631-8.088-14.432-12.15c-0.173-2.371-0.282-4.749-0.437-7.121
			c16.462,11.743,31.769,28.276,50.299,35.141C61.003,166.74,57.055,167.007,53.024,167.243z M70.121,166.05
			c0.002-0.51-0.213-1.016-0.76-1.322c-19.187-10.78-36.196-25.506-55.232-36.442c-0.335-5.425-0.625-10.854-0.865-16.288
			c21.174,18.268,42.022,38.07,65.268,53.311C76.561,165.503,73.649,165.765,70.121,166.05z M85.899,164.531
			c-23.427-19.616-48.404-37.897-72.769-56.515c-0.121-3.141-0.236-6.283-0.315-9.43c14.443,11.569,28.299,23.86,42.377,35.869
			c11.478,9.792,23.813,21.696,37.265,29.602C90.262,164.181,88.071,164.332,85.899,164.531z M100.89,163.734
			c-15.197-12.675-31.976-23.667-47.327-36.276c-13.48-11.072-26.972-22.119-40.779-32.778c-0.011-3.059,0.082-6.135,0.215-9.217
			c32.139,30.151,71.319,54.597,108.162,78.195C114.43,163.618,107.641,163.572,100.89,163.734z M134.629,163.662
			c-2.296,0.024-4.615,0.022-6.939,0.019c0.276-0.846,0.151-1.791-0.683-2.493c-35.332-29.831-78.354-48.753-113.858-78.614
			c0.13-2.407,0.293-4.82,0.467-7.234c28.583,20.402,57.842,39.823,86.477,60.149c9.575,6.796,18.873,13.976,28.359,20.896
			c2.72,1.983,5.952,4.787,9.397,7.201C136.774,163.611,135.67,163.651,134.629,163.662z M149.708,163.198
			c-14.384-11.718-31.735-21.576-46.997-32.188C73.643,110.8,43.071,92.881,13.792,72.995c0.405-5.325,0.84-10.651,1.213-15.963
			c6.802,2.589,17.666,14.396,22.458,17.978c16.738,12.509,33.389,25.131,50.219,37.517c17.227,12.678,34.529,25.265,52.169,37.366
			c5.679,3.895,12.359,9.349,19.327,13.107C156.004,163.009,152.831,163.091,149.708,163.198z M173.553,163.705
			c-0.159-0.517-0.548-0.989-1.247-1.319c-31.406-14.813-60.03-38.778-88.117-58.859c-17.1-12.225-34.217-24.431-51.389-36.554
			c-3.475-2.453-12.017-10.597-17.685-11.489c0.516-7.72,0.842-15.399,0.5-22.951c2.916-0.555,5.91-1.138,8.956-1.71
			c-0.342,0.593-0.3,1.422,0.447,1.919c53.248,35.507,106.552,71.873,161.195,105.189c0.212,9.675,0.554,19.344,1.405,28.967
			C183.256,165.255,178.496,164.277,173.553,163.705z"/>
		<path d="M183.34,148.058c-32.361-24.166-64.598-47.588-98.43-69.656c-15.32-9.991-30.736-19.836-46.145-29.687
			c-6.194-3.959-13.21-9.997-20.504-11.732c-0.528-0.125-1.175,0.497-0.78,1.015c4.093,5.366,11.258,8.946,16.762,12.645
			C49.168,60.673,64.066,70.747,78.929,80.87c34.383,23.419,67.056,49.027,101.177,72.721
			C183.546,155.98,186.581,150.477,183.34,148.058z"/>
	</g>
</g>
<g>
</g>
<g>
</g>
<g>
</g>
<g>
</g>
<g>
</g>
<g>
</g>
<g>
</g>
<g>
</g>
<g>
</g>
<g>
</g>
<g>
</g>
<g>
</g>
<g>
</g>
<g>
</g>
<g>
</g>
</svg>
