<?xml version="1.0" encoding="iso-8859-1"?>
<!-- Generator: Adobe Illustrator 16.0.0, SVG Export Plug-In . SVG Version: 6.00 Build 0)  -->
<!DOCTYPE svg PUBLIC "-//W3C//DTD SVG 1.1//EN" "http://www.w3.org/Graphics/SVG/1.1/DTD/svg11.dtd">
<svg version="1.1" id="Capa_1" xmlns="http://www.w3.org/2000/svg" xmlns:xlink="http://www.w3.org/1999/xlink" x="0px" y="0px"
	 width="190.964px" height="190.964px" viewBox="0 0 190.964 190.964" style="enable-background:new 0 0 190.964 190.964;"
	 xml:space="preserve">
<g>
	<g>
		<path d="M128.518,49.154C127.887,20.66,103.271-0.66,74.678,9.708c-17.575,6.373-37.432,37.033-26.861,55.599
			c-15.461-13.503-38.718,4.074-45.5,21.327c-14.546,37,43.039,41.429,71.652,42.31c0.169,2.483,0.348,4.95,0.501,7.411
			c0.005,0.176,0.022,0.373,0.022,0.543c0.005,3.42,0.007,6.839,0.022,10.259c-0.153-0.042-0.297-0.097-0.481-0.095
			c-3.744-0.004-7.559-0.18-11.33-0.086c-1.308-0.037-2.616-0.037-3.924-0.125c-0.69-0.045-1.076,0.479-1.142,1.056
			c-0.77-0.17-1.657,0.588-1.097,1.372c7.878,11.031,19.584,31.23,33.681,34.43c12.533,2.846,27.125-23.943,35.366-30.525
			c0.5-0.399,0.486-0.922,0.262-1.368c1.718-0.517,1.567-3.423-0.505-3.403c-5.982,0.057-12.374,0.07-18.301,0.8
			c-0.234,0.029-0.386,0.161-0.563,0.263c-0.105-0.078-0.214-0.154-0.318-0.232c0.076-6.025,1.308-13.395-0.877-19.164
			c36.802,1.575,79.688,0.879,85.434-43.316C194.591,56.973,151.786,28.73,128.518,49.154z M60.271,150.462
			c1.208,0.075,2.432,0.051,3.649,0.067c0.008,0.01,0.003,0.021,0.012,0.03c5.472,5.69,11.349,10.889,17.282,16.088
			c4.583,4.016,8.741,8.634,13.253,12.711C84.444,183.689,68.082,159.611,60.271,150.462z M96.29,178.3
			c-3.042-4.528-8.229-8.3-12.131-11.729c-6.13-5.389-12.524-10.496-18.542-16.01c1.98-0.004,3.949-0.027,5.92-0.043
			c8.219,8.971,17.578,19.006,28.316,24.508C98.686,176.259,97.504,177.38,96.29,178.3z M100.918,173.877
			c-9.01-8.002-18.57-15.391-27.649-23.372c0.253,0,0.511-0.005,0.764-0.006c0.496,0,0.864-0.189,1.138-0.458
			c0.821,0.543,2.113,0.199,2.425-0.942c2.159,3.776,5.987,6.779,9.185,9.459c5.288,4.434,10.894,8.44,16.116,12.955
			C102.24,172.324,101.582,173.127,100.918,173.877z M104.144,169.953c-8.272-8.243-18.78-13.709-26.431-22.703
			c0.036-1.271,0.082-2.542,0.008-3.81c0.001-0.507,0.002-1.015,0.003-1.521c9.074,8.714,19.087,16.964,28.896,24.815
			C105.793,167.819,104.968,168.9,104.144,169.953z M107.723,165.287c-8.391-9.539-20.306-16.509-29.997-24.641
			c0.003-1.249,0.007-2.499,0.008-3.748c0.001-0.623,0.033-1.299,0.07-1.995c10.161,9.79,21.9,17.807,32.089,27.6
			C109.165,163.419,108.44,164.347,107.723,165.287z M115.537,152.331c1.905-0.069,3.813-0.174,5.721-0.266
			c-2.103,1.005-4.068,2.556-5.958,4.379c-1.583-1.312-3.182-2.601-4.803-3.862C112.228,152.571,113.996,152.388,115.537,152.331z
			 M113.755,157.987c-0.873,0.933-1.734,1.91-2.58,2.933c-9.583-10.56-22.261-18.225-33.319-27.167
			c0.072-1.62,0.089-3.284-0.298-4.711c0.172,0.005,0.315,0.007,0.485,0.011c-0.191,0.117-0.309,0.396-0.108,0.572
			c8.052,7.061,16.556,13.59,25.074,20.092c0.151,0.9,0.906,1.332,1.671,1.277C107.717,153.312,110.74,155.644,113.755,157.987z
			 M102.604,131.981c-0.068,0.97-0.064,1.944-0.082,2.916c-0.718-0.484-1.445-0.956-2.143-1.448
			c-1.684-1.188-3.264-2.502-4.854-3.809c2.288,0.102,4.609,0.209,6.987,0.317c-0.003,0.038-0.039,0.063-0.038,0.103
			C102.483,130.702,102.562,131.341,102.604,131.981z M93.588,129.558c0.028,0.089,0.023,0.177,0.097,0.263
			c1.491,1.717,3.311,3.114,5.09,4.517c1.243,0.98,2.46,2.026,3.712,3.014c0.021,1.375,0.062,2.75,0.121,4.127
			c-1.92-1.75-4.112-3.285-6.09-4.906c-2.921-2.396-5.786-4.857-8.713-7.247C89.697,129.392,91.639,129.476,93.588,129.558z
			 M95.515,137.578c2.371,2.171,4.6,4.652,7.21,6.548c0.042,0.898,0.086,1.796,0.12,2.691C94.7,140.888,86.366,135.2,78.393,129.06
			c2.084,0.049,3.989,0.087,5.535,0.123c0.928,0.023,1.937,0.074,2.888,0.105c-0.035,0.121-0.03,0.251,0.098,0.372
			C89.75,132.332,92.641,134.947,95.515,137.578z M181.594,104.892c-15.188,30.578-63.883,22.396-91.402,21.121
			c-24.07-1.116-82.418,4.881-85.981-29.365c-2.474-23.78,30.158-42.266,46.833-24.031c0.871,0.953,2.467-0.287,1.78-1.373
			c-0.022-0.035-0.046-0.064-0.069-0.099c0.871,0.508,1.842-0.515,1.128-1.367c-16.777-20.016,6.048-50.931,25.457-57.933
			c26.823-9.676,46.094,16.775,45.561,40.557c-0.012,0.524,0.176,0.912,0.445,1.202c0.358,0.915,1.531,1.486,2.474,0.582
			c14.897-14.266,34.226-7.309,48.18,4.22C190.43,70.325,189.05,89.882,181.594,104.892z"/>
	</g>
</g>
<g>
</g>
<g>
</g>
<g>
</g>
<g>
</g>
<g>
</g>
<g>
</g>
<g>
</g>
<g>
</g>
<g>
</g>
<g>
</g>
<g>
</g>
<g>
</g>
<g>
</g>
<g>
</g>
<g>
</g>
</svg>
